<?xml version="1.0" encoding="utf-8"?>
<!-- Generator: Adobe Illustrator 22.1.0, SVG Export Plug-In . SVG Version: 6.00 Build 0)  -->
<svg version="1.1" id="Layer_1" xmlns="http://www.w3.org/2000/svg" xmlns:xlink="http://www.w3.org/1999/xlink" x="0px" y="0px"
	 viewBox="0 0 467 132" style="enable-background:new 0 0 467 132;" xml:space="preserve">
<style type="text/css">
	.st0{fill:none;}
	.st1{stroke:#FFFFFF;stroke-miterlimit:10;}
</style>
<g>
	<rect x="154" y="1.9" class="st0" width="181.8" height="64.2"/>
</g>
<g>
	<rect x="131.4" y="31.1" class="st0" width="220.2" height="53.9"/>
	<path class="st1" d="M173.1,25.3c0.1,0,0.5,0.1,1.1,0.4c0.3-0.1,0.4-0.2,0.4-0.3c1.8,0,4.2,0.5,7.2,1.6l3.9,2.1l2.3,2.3l2,2.8
		l-0.2,0.3l0,0.3c0.6,1.2,0.9,2,0.9,2.2c0.2,3.9-1,7.8-3.8,11.7c0,0.6-2.9,3.6-8.8,9.2c-1.9,1.3-3.4,2.5-4.5,3.8
		c-1.6,0.9-3.8,2.4-6.4,4.4c-4.4,2.8-7.9,4.7-10.5,5.9c-3.8,2.2-9.3,4.5-16.4,6.6c-2.9,0.4-4.4,0.7-4.7,0.8l-0.3-0.2
		c-1.1,0.2-2.4,0.3-3.8,0.3h-0.1c-0.5,0.5-1.2,1.7-2.2,3.6c-1,0.5-1.7,1.1-2,2c-0.2,0.1-0.4,0.2-0.6,0.2l0-0.3
		c0.8-1.8,1.2-2.9,1.2-3.2l0.3,0.2h0.3c0.2,0,0.3-0.6,0.5-1.8l0-0.6c0-0.2-0.4-0.4-1.2-0.8c-0.3,0.2-0.6,0.3-0.8,0.3
		c-0.2,0-1.7-0.6-4.4-1.8c0-0.2-0.3-0.4-1-0.8c-1-1-1.5-1.8-1.5-2.6h0.3c0,0.4,0.7,0.9,2,1.5c0,0.4,0.9,0.8,2.5,1
		c0,0.2,0.2,0.3,0.5,0.5c0.3,0,0.6-0.1,0.9-0.3L127,77c0.2,0,0.5-0.1,0.9-0.3c0.2,0.4,0.4,0.6,0.5,0.6h0.3c0-0.5,0.6-0.8,1.8-0.8
		c0.2-0.9,0.6-1.4,1.1-1.4l0-0.4c0-0.1-0.1-0.2-0.2-0.2c0-0.1,0.3-0.4,0.8-0.9v-0.2c0-0.1-0.1-0.2-0.2-0.2c0-0.1,0.3-0.5,1-1.2
		l-0.2-0.8c0.7-1.5,1.3-2.3,1.7-2.3l-0.1-0.9h0.8l0-0.4h-0.4l0-0.5l0.8,0.2h0.1v-0.3l-0.3-0.5c0.2-0.5,0.4-0.8,0.7-0.8v-0.3
		c0-0.2-0.1-0.4-0.2-0.6c0-0.4,0.3-0.7,0.8-0.9c0.1-0.2,0.1-0.4,0.1-0.6c-0.1-0.2-0.2-0.4-0.2-0.5h1c0.2,0,0.3-0.1,0.3-0.3
		c-0.2,0-0.3-0.1-0.3-0.3v-0.2h0.3l-0.1-0.8l0.2-0.3c-0.2,0-0.3-0.1-0.3-0.3c0-0.2,0.4-0.5,1.2-0.8l0-0.3h-0.8v-0.3
		c1.3-1,2-2.1,2.2-3.5h0.2v-0.2c0-0.2-0.1-0.4-0.2-0.6c0-0.3,0.1-0.4,0.4-0.4l-0.2-0.3c0.7-2.5,1.3-3.8,2-3.8l0.2-0.3
		c-0.2,0-0.3-0.1-0.5-0.4v-0.2c0.5,0,0.8-0.2,0.9-0.5v-0.3h-0.5l1.6-4.2c0.7-0.1,1-0.6,1-1.5h-0.1c0-0.4,0.2-0.6,0.7-0.6
		c0-0.2-0.1-0.4-0.2-0.6c0.1-0.9,0.8-2.6,2.1-5.2c0.7-0.8,1-1.3,1-1.7h-0.6c-1.3,1-3.6,2.5-7.2,4.4l-6.5,4.8
		c-3.9,3.6-5.9,5.6-5.9,5.8c-0.2,0.2-0.9,1.5-2.2,3.8c-0.2,0-0.3,0.1-0.3,0.2c-0.9-0.3-1.4-0.8-1.4-1.4c-0.1-0.8,0.6-2.2,2-4.1
		c1.7-2.4,3.1-3.9,4.3-4.5c4.6-4.6,8.2-7.3,11-8h0.6c0-0.7,0.5-1.1,1.6-1.1c0-0.3,0.6-0.8,1.8-1.5c0-0.2,0.3-0.4,1-0.6l0.6,0.2
		l1.4-1.4h0.9c0-0.2,0.2-0.9,0.6-1.8c0.3-2,0.8-3,1.5-3c1.3,0.1,2,0.6,2.1,1.5v0.4l-0.1,0.8l0.3,0.2c0.3-0.3,0.4-0.7,0.4-0.9h0.8
		c0.4-0.3,0.7-0.4,1-0.4h0.3c0,0.3,0.1,0.4,0.3,0.4c-0.1-0.8,0.6-1.2,2-1.2c0-0.1,0.1-0.2,0.4-0.2c0.2,0.1,0.4,0.2,0.5,0.2
		c0-0.4,1-0.9,3.1-1.5l0.3,0.2h0.8c0.7-0.6,2.7-0.9,6-0.9h0.4c0.4,0,1,0.1,1.7,0.2C172.5,25.4,172.8,25.3,173.1,25.3z M129,79.9v0.2
		h0.3v-0.2H129z M137.7,65.8v0.3c0.2,0,0.3,0.1,0.3,0.2c-0.1,0.5-0.5,1-1,1.5c0.1,0.2,0.2,0.3,0.2,0.4c-0.2,0.1-0.4,0.2-0.6,0.2
		l0,0.4c0,0.1,0.1,0.2,0.2,0.2c-1.8,3.3-3,5.8-3.6,7.4v0.3c2.3,0,5.8-0.7,10.3-2.1c0,0.1,0.1,0.2,0.2,0.2c0-0.2,1-0.6,3-1.4
		c0-0.3,0.4-0.4,1.2-0.4h0.9c0-0.3,1-0.8,2.9-1.7c0.1-0.2,0.8-0.5,2.2-0.9c0.4-0.3,2.6-1.6,6.6-3.6c0.1-0.3,1.9-1.4,5.4-3.5
		c1.7-1,3.5-2.3,5.5-3.8c0.2,0,1-0.6,2.3-1.8c6.8-5.7,11.1-10.5,12.9-14.4c0.3-0.1,0.7-1.5,1.2-4.2c0.1,0,0.2-0.1,0.2-0.2
		c-0.1-0.3-0.2-0.4-0.3-0.4l0.1-0.3c-0.3-4.2-3.1-7.2-8.4-8.8c-0.6-0.4-2.7-0.7-6.6-0.9h-0.4c-5.2,0-10.5,1-15.9,3
		c-0.5,0.3-1.7,0.9-3.7,1.8c-0.6,0.7-1,1.5-1.1,2.4c-0.3,0-1.4,2.5-3.3,7.6c-1.1,2.1-2,4.2-2.6,6.2c-0.3,0.1-0.8,1.2-1.4,3.4
		c-0.6,0.9-1.5,3-2.8,6l-1.3,3c-1.1,1.7-1.7,2.8-1.6,3.3C138.2,65.2,137.9,65.4,137.7,65.8z M136.5,77.3v0.3h0.6v-0.3H136.5z
		 M143.9,46.5l0,0.3h0.3l0-0.6C144,46.3,143.9,46.4,143.9,46.5z M144.5,45.3v0.3h0.3l0-0.3H144.5z M145.9,33.8v0.2h0.4v-0.2H145.9z
		 M151.9,71.5v0.3h0.3l0-0.3H151.9z M154.8,29.2v0.3h0.3l0-0.3H154.8z"/>
	<path class="st1" d="M195.3,47.5h0.3c0.6,0,1,0.3,1.3,0.8v0.5c-1.8,3.4-2.7,6.2-2.7,8.3v1.8c0,0.8,0.3,1.4,1,1.8h1.3
		c1.4,0,3.9-1.6,7.5-4.8c0.3,0,0.6-0.3,1-1c0.2,0,1.6-1.5,4.3-4.5c0.2,0,0.3-0.3,0.5-1c0.6-0.4,1.1-0.6,1.4-0.6h0.2
		c0.2,0,0.3,0.1,0.3,0.3c-0.9,2.9-2.7,5.8-5.4,9c-3.2,3-5.9,4.9-8.2,5.4l-1.6,0.3c-3.7-0.4-5.6-2.2-5.6-5.4c-0.1,0-0.2-0.3-0.3-1
		c0.8-4.2,2-7,3.5-8.5L195.3,47.5z M204.1,34.4c1.1,0.2,1.7,0.3,1.8,0.3v0.5c-0.4,1.2-2.1,2.9-5.3,5c-1.6,1-2.7,1.4-3.5,1.4
		c-1.1-0.1-1.6-0.7-1.6-1.6c0-0.8,1.7-2,5.1-3.7C201.4,35.7,202.6,35,204.1,34.4z"/>
	<path class="st1" d="M227.9,44.9c0,0.2,0.1,0.3,0.2,0.3c-1.2,3-2.2,4.8-2.9,5.6c-1,1.3-1.6,2.2-1.8,2.9c-6,6.3-10.3,9.4-13,9.4
		c-1.7,0-2.8-1.1-3.4-3.4v-0.2c0-1.8,1.1-6,3.4-12.5c1.1-0.3,1.8-0.5,2.1-0.5c0.4,0,0.6,0.5,0.6,1.4c-1.4,3.7-2.4,7.4-3,11.2v0.5
		c0,0.2,0.2,0.3,0.5,0.5c1.8,0,5.3-2.7,10.2-8c0.3,0,1.3-1.3,2.9-3.7c0.2,0,1.3-1.2,3.4-3.7H227.9z"/>
	<path class="st1" d="M239,46.4h0.3c0.8,0.3,1.3,0.9,1.6,1.8c-0.9,3.3-1.4,6.8-1.4,10.8c0,0.1,0.1,0.2,0.2,0.2l-0.2,0.9
		c0,0.6,0.1,1.8,0.2,3.5c-0.2,0.5-0.4,0.8-0.4,1c0,0.3,0.1,0.5,0.2,0.7c-0.2,4.2-0.5,6.8-0.7,7.8l1.1,0.2c0.7-0.2,1.2-0.5,1.6-0.7
		h0.5c0.1,0,0.2,0.1,0.2,0.2c0.7-0.3,1.7-0.6,3-0.9l0.5,0.4h0.2c0-0.5,2.1-1,6.2-1.4c0.4-0.5,0.9-0.7,1.4-0.7h0.2
		c0,0.3,0.1,0.5,0.3,0.5l0.7-0.7l1.2,0.2h0.4c0.3-0.4,0.9-0.7,1.8-0.9c0.1,0,0.2,0.1,0.2,0.2l2.1-0.2h1.6l2.1-0.7
		c0.1,0,0.3,0.1,0.7,0.2c0.5,0,2.2-0.4,5.1-1.1c0.4,0.2,0.8,0.4,1.1,0.4c0.2-0.5,0.6-0.7,1.2-0.7h0.9l0.7,0.6h0.2
		c0-0.4,0.9-0.7,2.8-1.1h0.4l0.7,0.5c0.2-0.5,0.4-0.7,0.5-0.7h0.6c2.8,0,4.2-0.2,4.2-0.5l0.9,0.2h0.7c0.8-0.2,1.3-0.4,1.4-0.4h1.4
		c0.1,0,0.2-0.1,0.2-0.2l0.3,0.2h5.3c0.9,0,2.2,0.1,3.7,0.2c0.6-0.1,0.9-0.3,0.9-0.4c0.7,0.3,1.2,0.5,1.6,0.5
		c0.4-0.2,0.8-0.4,1.1-0.4h0.5l1.2,0.2c0-0.2,0.1-0.4,0.3-0.4c0.1,0,0.2,0.1,0.2,0.2l1.2-0.2h0.5c1.3,0.3,2,0.5,2.1,0.5
		c0.2-0.5,0.3-0.7,0.5-0.7h0.2c0.2,0,0.4,0.2,0.4,0.6h0.5l0.7-0.7h0.9c0.5,0,1.5,0.1,2.8,0.4l0.2-0.4l0.9,0.2c0.4,0,0.8-0.1,1.2-0.3
		c0.3,0,0.5,0.2,0.5,0.5h0.2l0.5-0.4h0.9v0.2l-0.2,0.4h1.4c0-0.7,0.2-1,0.7-1l0.4,0.2h0.4l2.1-0.2l0.4,0.7c1.5-0.6,2.8-0.9,3.8-0.9
		c0.6,0.4,1.1,0.6,1.4,0.6c0-0.2,0.1-0.4,0.3-0.4h0.2l0.5,0.4h0.5l0.7-0.6l2.1,0.4c0.7-0.2,1.3-0.4,1.6-0.4l0.4,0.2l0.4-0.2l3.7,0.4
		c0.4,0,0.9-0.2,1.4-0.5h1.2c0.8,0.2,1.3,0.4,1.4,0.4h2.3l0.9,0.7h0.2c0-0.6,0.2-0.9,0.5-0.9c1.7,0.2,2.7,0.5,3,0.9h0.2
		c0.8,0,1.5-0.1,2-0.3l1,0.2l0.7-0.4l0.3,0.2c0.6-0.1,1.2-0.2,1.6-0.2h0.2c0.1,0,0.2,0.1,0.2,0.2l0.9-0.4c0.2,0.1,0.4,0.2,0.7,0.2
		h0.2c0.1,0,0.2-0.1,0.2-0.2c0.4,0.2,0.7,0.4,1,0.4h0.9v0.3h0.6c0.3,0,0.5,0.1,0.7,0.2c0.2-0.1,0.5-0.2,0.7-0.2h0.4
		c0.2,0,0.3,0.2,0.5,0.6c-0.2,0.1-0.5,0.2-0.7,0.2v0.4c0.3,0,0.5,0.1,0.5,0.4V67c-0.7-0.2-1.2-0.3-1.6-0.5c-0.4,0.1-0.7,0.2-0.7,0.2
		c-0.1,0-0.3-0.1-0.5-0.2c-1.5,0.1-2.3,0.3-2.3,0.5l-0.9-0.2h-0.2c-0.1,0-0.2,0.1-0.2,0.2c-0.2-0.1-0.8-0.2-1.6-0.4
		c-1.7,0.1-2.9,0.4-3.8,0.7h-9.2c-0.1,0-0.2,0.1-0.2,0.2l-0.4-0.2h-6.5c-0.4,0-0.9,0.1-1.6,0.2c-0.2-0.1-0.5-0.2-0.7-0.2
		c-1,0.1-1.5,0.2-1.8,0.4l-1-0.2h-0.2c-0.4,0-0.7,0.1-0.9,0.2l-1-0.2h-0.5c-1.2,0-1.8,0.1-1.8,0.4l-0.4-0.2H323
		c-0.4,0-0.7,0.1-0.9,0.2l-1.1-0.2h-1.2c-0.4,0-1.2,0.1-2.4,0.3c-1.1,0-4.8,0.1-10.9,0.2c-0.1,0-0.6-0.1-1.4-0.2l-0.7,0.4
		c0-0.2-0.2-0.3-0.5-0.5h-0.2l-1.1,0.5c-0.4-0.2-0.9-0.4-1.4-0.4c-0.6,0.4-1.1,0.6-1.4,0.6c-0.6,0-1.5-0.2-2.8-0.6
		c-0.5,0.5-0.9,0.7-1.2,0.7l-1.8-0.2c-1.2,0.2-2.7,0.4-4.6,0.5c-0.2-0.1-0.4-0.2-0.6-0.2l-7,0.7l-0.3-0.2c-1.5,0.1-2.3,0.2-2.3,0.3
		l-0.3-0.2h-0.2c-0.3,0-1.8,0.3-4.6,0.9l-0.4-0.2h-0.2l-4.6,0.9l-0.3-0.2c-9.6,1.3-16.6,2.5-20.8,3.5h-2c-0.6,0.3-2.7,0.9-6.3,1.8
		c-1.2,0.3-1.8,1-1.8,2.3c-0.3,0-0.6,1.1-1.1,3.2c-2.3,6.6-4.5,11-6.5,13.1c-3.4,5.2-7.8,8.8-13.1,10.7c-2.3,0.8-4.5,1.2-6.3,1.2
		h-1.2c-3.7-0.5-6.3-1.3-7.9-2.5c-3.3-1.8-4.9-4.2-4.9-7.4c0-2.2,1.3-4.3,3.9-6.5c1.2-1.4,3.7-3.3,7.4-5.4c0.2,0,1.4-0.7,3.5-2
		c8.8-3.9,13.8-5.8,15-5.8c1.3-0.8,3.7-1.6,7.4-2.5c1.3-0.1,1.9-0.7,1.9-1.6v-0.9l-0.2-1c0-0.2,0.3-0.5,0.9-0.9l-0.2-0.9
		c0.1-0.2,0.2-0.4,0.2-0.6l-0.2-0.3l0.2-0.9l-0.2-0.7c0.1-0.2,0.2-0.4,0.2-0.5c-0.1-0.5-0.2-0.9-0.2-1.2h0.2l-0.2-0.4v-0.5l0.3-0.5
		l-0.2-0.7l0.7-1.8l-0.9-1v-1.8l0.3-1.2c-0.2-0.7-0.3-1.2-0.3-1.4h-0.2c-2.8,3.9-4.5,5.8-5.1,5.8c-1,1.8-2.3,2.6-3.7,2.6
		c-1.9,0-3-1-3.3-3c0.1-0.3,0.2-0.5,0.4-0.5c0-0.1-0.1-0.2-0.2-0.2l0.2-1.2v-1.1c0.4,0,1-1.4,1.8-4.2c1.5-4.1,2.7-6.2,3.5-6.2h0.2
		c0.7,0,1,0.5,1,1.4c-2.6,5.5-3.8,9-3.8,10.6v0.4l0.2,0.9c1.3-0.4,3-1.7,5.1-4c2.5-3.1,3.7-4.9,3.7-5.3c0.9-1.3,1.5-2.9,1.9-4.9
		C238.2,46.9,238.5,46.7,239,46.4z M200.2,97.6v0.7c1.1,3.9,4.4,6,9.8,6.5c1.9-0.3,2.8-0.5,2.8-0.7l0.9,0.2h0.5l3.7-1.9l0.4,0.2h0.5
		c0-0.7,0.7-1.2,2.1-1.4c0.4-1,1.5-2.1,3.4-3.2c0-0.8,0.9-1.7,2.6-2.6c0.7-0.4,1-1,1-1.9c0.3,0,0.8-0.8,1.6-2.3
		c0.5-0.8,1-1.2,1.6-1.2v-0.5c-0.2-0.3-0.4-0.5-0.4-0.6c0.4-1.3,0.7-1.9,0.9-1.9c0.4,0,0.6-0.5,0.7-1.6c0.1,0,0.2-0.1,0.2-0.2v-0.9
		c0.7,0,1.1-0.6,1.1-1.8c0.2,0,0.3-0.3,0.5-1c0.2,0,0.4-0.1,0.4-0.4c-0.1-0.2-0.2-0.4-0.2-0.5c0.2,0,0.4-0.1,0.4-0.4
		c0-0.1-0.1-0.3-0.2-0.5c0-0.8,0.3-1.2,0.9-1.2v-0.5c0-0.2-0.1-0.4-0.4-0.4h-0.2c-6.4,1.6-13.4,4.2-20.9,7.6
		C204.8,90,200.2,94.1,200.2,97.6z M254.7,70.3v0.3c0.3,0,0.5,0.1,0.7,0.2l0.2-0.4l-0.4-0.2H254.7z M318.4,65.7v0.2h0.4
		c0.2,0,0.3-0.2,0.5-0.6h-0.5C318.5,65.4,318.4,65.6,318.4,65.7z M351,64.5h0.5v0.2H351V64.5z M362.8,65.6c0.7,0.3,1.6,0.6,2.6,0.7
		v0.6l-1.2-0.2h-0.4l-0.9,0.2c-0.2-0.3-0.4-0.5-0.4-0.6v-0.3L362.8,65.6z"/>
	<path class="st1" d="M256.3,45.8c1.1,0,2.3,0.6,3.7,1.9c1.4,0,2.1,0.5,2.1,1.4c0.1,0,0.2,0.1,0.2,0.2c-1.5,2.7-2.2,5-2.2,6.9v0.5
		c0.2,1,0.5,1.4,0.8,1.4h1c1.5,0,4-2,7.5-6.1c0-0.3,0.7-0.9,2.2-1.9c0.2-0.8,0.6-1.4,1.3-1.8h0.2c0,0.3,0.1,0.6,0.3,1
		c-0.6,1.9-1.6,3.6-2.8,5.2c-3.6,4.6-6.6,7-9,7c-2.2,0-3.9-1.3-5-3.8v-0.3H256c-3.9,3.3-6.9,5-9.1,5h-0.5c-2.1,0-3.4-1.1-4-3.4v-0.3
		c0-2.9,2.2-6,6.6-9.1l4.5-2.9C253.5,46.2,254.4,46,256.3,45.8z M245.9,58.1v1.1c0,0.2,0.1,0.3,0.3,0.3h0.3c1.9,0,4.6-1.5,7.8-4.6
		c2-2.1,3-3.7,3-4.8V50c0-1.3-0.5-1.9-1.4-1.9c-2.6,0.9-5.4,2.9-8.3,6.1C246.7,55.5,246.1,56.9,245.9,58.1z"/>
	<path class="st1" d="M273.2,47.4c1,0.1,1.6,0.5,1.6,1.2l0,0.3c0.1,0.9-0.2,1.8-0.8,2.7v0.2h0.1c2.1-2.3,3.8-3.5,4.9-3.7
		c0-0.2,0.5-0.5,1.4-1h1c2.1,0,3.3,1.3,3.5,3.8c-0.3,0.6-0.4,0.9-0.4,1.1l0.2,0.3c-0.7,2.5-1,4.2-0.9,4.9l0.1,1
		c0,0.1,0.2,0.3,0.5,0.4h0.3c2.6-0.7,5-1.9,7.2-3.6c2.2-1.7,3.7-3.2,4.7-4.6c0.6-0.8,1.1-1.3,1.4-1.4c0.3-0.1,0.6,0,0.8,0.2
		s0.1,0.8-0.5,1.7c-1.5,2.4-3.1,4.3-4.6,5.7c-1.5,1.4-3.3,2.7-5.4,3.9c-0.6,0.4-1.6,0.7-2.9,1c-2.9-0.3-4.4-1.3-4.6-3.2
		c-0.1-0.1-0.1-0.4-0.2-0.8c-0.1-0.6,0.4-2.8,1.4-6.6l-0.1-1.1c0-0.2-0.1-0.3-0.3-0.3H281c-1.6,1.1-3.2,2.5-4.8,4.1
		c-0.1,0-0.5,0.5-1.2,1.5c-0.4,0.1-1.2,1.2-2.4,3.3c-0.3,0.1-0.7,0.9-1,2.4c-1.1,2-1.7,3-2,3.2c0,0.1-0.1,0.2-0.5,0.3
		c-1.3-0.3-2-0.8-2.1-1.5v-0.1c0.2-1.9,0.9-4.5,2.3-7.7c1.1-2,2.2-4.4,3-7C272.6,47.5,272.9,47.4,273.2,47.4z"/>
	<path class="st1" d="M303.7,43.8c1.9,0.4,2.9,1.3,2.9,2.9c-0.5,2.6-1.2,3.8-2.1,3.8c-0.1,0-0.3,0.1-0.5,0.2c-0.6,0-1-0.3-1.3-1
		c0.4-1.3,0.6-2.3,0.6-3c0-0.2-0.1-0.3-0.3-0.3c-1.9,0.3-2.9,0.9-2.9,1.8c0,2.4,1,4.9,2.9,7.4l0.3,0.2c0.6-0.5,1.7-1.2,3.2-2.1
		c3.3-2.1,6.3-3.2,9-3.4c1.3-0.9,2.3-1.3,3-1.3l0.2,0.3v0.5c-0.5,0-1.5,0.7-3.2,2.2c-2.2,1.2-5.6,3.1-10.2,5.7l-0.6,0.8
		c0.9,1.4,1.3,3,1.3,4.8c-0.6,2.2-2.1,4-4.3,5.4c-1.8,1.5-3.8,2.4-6.2,2.7c-2.9-0.4-4.3-1.4-4.3-2.9v-0.8c0-0.9,0.8-2,2.4-3.4
		c1.2-1.5,3.6-3.6,7.2-6.4l0.2-0.3v-0.3c-2.6-3.7-3.8-6.6-3.8-8.8c0.2-2.5,1-3.7,2.4-3.7C301,44.3,302.4,44,303.7,43.8z M294.4,68.2
		v0.2c0.1,0.3,0.4,0.5,1.1,0.5c1.8,0,4-1.2,6.6-3.7c0-0.1,0.3-0.8,1-2.1v-1.3c0-0.3-0.1-0.7-0.3-1.4h-0.6
		C296.9,64.5,294.4,67.1,294.4,68.2z"/>
	<path class="st1" d="M325,29.3c0.5,0.2,1,0.5,1.3,0.8c-0.3,0.7-1.4,3.7-3.1,8.9c-1,1.6-1.6,3.4-1.9,5.2c-2.2,5.4-3.7,9.3-4.3,11.6
		h-0.2c0.7-0.5,1.5-1.3,2.3-2.3c0.1,0,0.8-0.8,2.2-2.4l3.8-3l2.7-0.9c1.3,0,2.3,1.1,3,3.4v0.2c0,0.4-0.2,2.4-0.7,5.9
		c0.2,1.1,0.4,1.6,0.5,1.6h0.4c1.6,0,4.4-2.5,8.3-7.4c0.3-0.5,0.8-1.2,1.6-2l0.1-0.6h0.9l-0.1,0.9c0.3,0,0.5,0.2,0.5,0.5
		c-0.3,0.5-0.5,1.5-0.8,3l-2.9,4l-2.9,2.5c-1.9,1.6-3.4,2.4-4.5,2.4c-1.8,0-3.2-1-4-3l-0.1-2.1c-0.1-0.9,0.2-2.7,0.6-5.7
		c0-0.4-0.1-0.6-0.3-0.6c-2,0.7-5.1,3.7-9.4,8.9c-1.3,2.6-2.7,4.6-4.2,6c-1.5-0.1-2.3-0.6-2.4-1.4c0.1-0.5,0.1-0.7,0.2-0.7
		c0,0.2,0,0.3-0.2,0.3c0.4-1.7,0.7-2.6,1-2.6l0-0.7c0-0.3,0.8-2.5,2.3-6.6v0.1h-0.3c1.1-2.3,2-4.3,2.6-5.9c0.4-1.3,2.3-6,5.6-14.2
		C323.4,30.6,324.3,29.3,325,29.3z"/>
</g>

</svg>
