<?xml version="1.0" encoding="utf-8"?>
<!-- Generator: Adobe Illustrator 22.1.0, SVG Export Plug-In . SVG Version: 6.00 Build 0)  -->
<svg version="1.1" id="Layer_1" xmlns="http://www.w3.org/2000/svg" xmlns:xlink="http://www.w3.org/1999/xlink" x="0px" y="0px"
	 viewBox="0 0 288 560" style="enable-background:new 0 0 288 560;" xml:space="preserve">
<style type="text/css">
	.st0{fill:none;}
	.st1{fill:none;stroke:#000000;stroke-miterlimit:10;}
</style>
<g>
	<rect x="42.8" y="136.7" class="st0" width="230.6" height="83.5"/>
	<path class="st1" d="M54.7,143.5c-0.3-0.9-0.2-1.4,0.8-1.6c5.7-0.7,9.8-4,15.1-4.8c5.2-0.8,9.3,1.9,12.4,7.2
		c7.5,13.1-7.1,37.1-29,44.4c-2.4,0.8-3.9,0.6-5.2-0.6c-1-0.8-2.3-1.9-3.4-3.5c-1.6-2.1-2-3.4-0.2-8.7c2.5-7.7,9.3-20.5,15-28.9
		C56.8,146.8,55.2,144.8,54.7,143.5z M62.2,154.8c-4.1,7.3-10.7,18.2-13.1,25.7c-1.1,3.4-0.5,4.6,2,3.7c22.4-8.5,32.7-32,27.9-39.7
		c-2.9-4.6-8.9-0.2-14.6,1.6C64.8,148.2,64.3,151.2,62.2,154.8z"/>
	<path class="st1" d="M80.9,177.3c2-6,7.5-15.7,10.5-19.9c0.7-1,1.3-1.2,2-0.5c1.2,1.3,1.9,4.8-0.1,8.9c-1.7,3.6-5.2,9.2-6.9,13.3
		c-2,4.8-1.8,8,0.8,7.8c3.7-0.2,8.2-5.6,10.7-11.2c0.4-0.7,1-0.7,1.3,0c0.7,1.3,0.4,3-0.6,5.1c-2.5,5.1-7.6,8.5-12.2,8.5
		C80.2,189.3,78.6,184,80.9,177.3z M99.2,155.9c-1.1,1.1-3.4,0.9-4.6-1.2c-1.3-2.2-0.9-4.7,0.4-6.1s3.7-0.4,4.8,1.8
		C100.8,152.6,100.3,154.8,99.2,155.9z"/>
	<path class="st1" d="M124.1,155.9c0.9-0.9,1.4-0.7,1.6,0.3c0.2,1.7-0.7,3.9-3.4,7.1c-4.1,5.2-11.6,13-19.4,25.5
		c-0.4,0.7-0.8,1.2-1.6,0.8c-3.2-1.6-4.3-3.2-4.1-7.5c0.3-5.7,2.5-17.5,5.3-26c0.3-0.9,1-1.2,1.6-0.7c2.7,2.3,3.1,5.3,2,10.3
		c-1.5,6.3-3.1,10.9-4.3,19.8C107.6,176.1,118.5,161.7,124.1,155.9z"/>
	<path class="st1" d="M135.9,191.1c-4.6,11-10.4,24.2-17.2,26.8c-1.6,0.6-3.1,0.6-4.7-1.7c-1.6-2.5-3.3-5.3-1.6-10.2
		c2.5-7.4,9.4-12.3,17.5-15.5c0.8-1.9,1.6-3.9,2.5-5.9c-2.5,2.6-5.7,4.8-8.9,4.5c-5.9-0.5-6.1-6.5-4.2-11.9
		c1.8-5.2,5.8-13.4,11.2-20.7c0.7-0.9,1.5-0.8,2,0c2,2.6,1.5,6.1-1.6,10.9c-3,4.8-4.8,8.1-6.3,12c-1.6,4-1.5,6.9,0.4,7.1
		c3.2,0.2,7.3-5,11.5-12.1c3.5-6.1,7.1-13.4,9.9-17.6c0.7-1.1,1.3-1.2,2.1-0.6c1.1,1.5,1.8,5-0.3,9.2c-2.5,4.8-7.5,14.6-10.9,22.6
		c6.4-3.4,11.2-8.1,14.5-12.6c0.4-0.6,1.1-0.7,1.3,0.2c0.2,0.7-0.1,2.6-1.5,4.8C148.5,185.2,142.7,188.3,135.9,191.1z M115.7,213.4
		c1.1,1.6,7.8-7.4,12.9-19.4C117.9,200.1,114.2,211.3,115.7,213.4z"/>
	<path class="st1" d="M180.3,156.4c0.7-1.1,1.4-1.2,2-0.5c1.2,1.5,1.9,5-0.1,9.1c-1.8,3.7-5.9,9.8-7.9,14.2c-2,4.6-2.1,8.1,0.7,8
		c3.4-0.2,7.9-5.7,10.7-11.4c0.4-0.7,1-0.8,1.3-0.1c0.3,0.7,0.3,2.8-0.7,5.1c-2.1,4.5-7.3,9-11.8,8.8c-4.4-0.2-6.7-2.9-6.7-6.7
		c-2.6,3.4-6.3,6.4-10.3,6.4c-7.6,0-9.2-10.4-2.4-20.3c6.6-9.7,13.1-13.4,17.2-13.4c3.5,0,5.2,2.7,5,5.9
		C178.4,159.4,179.4,157.7,180.3,156.4z M173.7,159.8c-2.6-0.2-8.6,5.1-13.1,12.4c-4.3,7.1-5.4,14.3-2.2,14.4
		c3.4,0.1,7.6-5.2,11.8-12.4C175.4,165.1,176.1,160,173.7,159.8z"/>
	<path class="st1" d="M209.2,155.9c2.7,0.4,5.2,4.4,3.2,8.7c-1.7,3.6-5.7,9.7-7.6,13.9c-2.1,4.8-1.6,8.6,1.3,8.4
		c3.4-0.2,7.4-5.6,10.5-11.3c0.4-0.7,1-0.7,1.4-0.1c0.6,0.9,0.4,2.8-0.7,5.2c-2.2,4.6-7.4,8.8-12.1,8.8c-7,0-8.6-5.1-6.2-12.2
		c2.7-8,9.9-16.7,8.4-17.4c-0.8-0.3-5.6,2-10.8,7.7c-4.8,5.2-8.4,13.1-12,20.8c-0.3,0.7-0.8,1.1-1.6,0.3c-1.6-1.6-2.1-4.3-0.8-8.4
		c1.6-5.2,8-16.6,13.1-24.2c0.6-0.9,1.2-0.8,1.7,0c1.2,2.1,1.1,4.8,0.2,7.8C201,160,206.5,155.5,209.2,155.9z"/>
	<path class="st1" d="M228.3,160.5c0.4-3.2,1.2-4.8,3-6.3c1.8-1.6,3.7-2,4.4-1.2c0.8,0.8,0.4,1.7-0.7,3.6c-0.3,0.5-0.6,1-0.9,1.6
		c-0.6,7.5,1,13.9,0.7,19.6c-0.2,3.2-0.7,6.6-3.7,8.6c5.5-2,8.9-7,11-11.4c0.4-0.9,1.2-0.7,1.6,0c0.3,0.7,0.2,2.9-1.1,5.4
		c-3.1,5.7-8.7,8.8-14.5,9c-4.8,0.2-9.3-1.1-12.1-6.1c-2-3.7-1.7-9.1,1.1-11.4c1-0.8,1.6-0.5,1.7,0.8c0.1,0.7,0.1,1.3,0.2,2
		C222.2,170,225.9,164.7,228.3,160.5z M219.6,179c1.2,4.8,3.6,8.1,6.3,7.3c3.8-1.1,2.5-14,2.2-20.6
		C225.7,170.1,222.7,174.6,219.6,179z"/>
	<path class="st1" d="M261,189.4c-6.9,0-8.6-5-6.1-12.1c2.7-8,9.8-16.5,8.5-17.2c-1.1-0.7-10.1,4.9-14.8,12.7c-3,4.8-6,10.6-8,15.6
		c-0.3,0.7-0.9,0.9-1.4,0.3c-1.3-1.5-2-3.8-0.3-8.7c2.9-8.2,19.9-37.1,26.6-45.3c0.7-1,1.6-0.9,2,0.1c1.1,2.4,0.8,6.5-2.3,11.6
		c-2,3.3-6.3,9.9-9.8,15.4c3.4-3.3,7.6-6,9.8-5.7c2.8,0.3,5.3,4.4,3.2,8.6c-1.8,3.6-5.7,9.6-7.6,13.9c-2,4.8-1.6,8.6,1.4,8.4
		c3.4-0.2,7.9-6.1,10.4-11.3c0.3-0.7,1.1-0.7,1.5-0.1c0.4,0.9,0.4,2.6-0.8,5.1C270.8,185.3,265.8,189.4,261,189.4z"/>
</g>
</svg>
